# xmcd
#
# Track frame offsets: 
#        150
#        10201
#        29455
#        42159
#        57554
#        69411
#        83073
#        97431
#        111991
#        125925
#        141310
#        156721
#        175364
#        190656
#        209569
#
# Disc length: 2999 seconds
#
# Revision: 0
# Processed by: cddbd v1.5.2PL0 Copyright (c) Steve Scherf et al.
# Submitted via: ExactAudioCopy v0.99pb4
#
DISCID=ec0bb50f
DTITLE=Various Artist - All American Country [CD1]
DYEAR=1984
DGENRE=Country
TTITLE0=Charly McClain - Who's Cheatin' Who
TTITLE1=Willie Nelson - Last Thing I Needed First Thing This Morning
TTITLE2=Janie Fricke - Do Me With Love
TTITLE3=Waylon Jennings - Lucille (You Won't Do Your Daddy's Will)
TTITLE4=Kieran Kane - You're the Best
TTITLE5=Rex Allen Jr. and  Margo Smith - Cup of Tea
TTITLE6=David Allen Coe - The Ride
TTITLE7=Rosanne Cash - Seven Year Ache
TTITLE8=Lacy J. Dalton - 16th Avenue
TTITLE9=The Gatlin Brothers - Sure Feels Like Love
TTITLE10=B.J. Thomas - Whatever Happened to Old Fashioned Love
TTITLE11=Deborah Allen - Baby I Lied
TTITLE12=George Jones - Shine On (Shine All Your Sweet Love On Me)
TTITLE13=Merle Haggard - Are the Good Times Really Over (I Wish a Buck
TTITLE13=Was Still Silver)
TTITLE14=Earl Thomas Conley - Your Love's On the Line
EXTD=
EXTT0=
EXTT1=
EXTT2=
EXTT3=
EXTT4=
EXTT5=
EXTT6=
EXTT7=
EXTT8=
EXTT9=
EXTT10=
EXTT11=
EXTT12=
EXTT13=
EXTT14=
PLAYORDER=
